<?xml version="1.0" standalone="no"?>
<!DOCTYPE svg PUBLIC "-//W3C//DTD SVG 20010904//EN"
 "http://www.w3.org/TR/2001/REC-SVG-20010904/DTD/svg10.dtd">
<svg version="1.0" xmlns="http://www.w3.org/2000/svg"
 width="800.000000pt" height="800.000000pt" viewBox="0 0 800.000000 800.000000"
 preserveAspectRatio="xMidYMid meet">
<metadata>
Created by potrace 1.11, written by Peter Selinger 2001-2013
</metadata>
<g transform="translate(0.000000,800.000000) scale(0.100000,-0.100000)"
fill="#000000" stroke="none">
<path d="M0 4000 l0 -4000 4000 0 4000 0 0 4000 0 4000 -4000 0 -4000 0 0
-4000z m3080 893 c0 -983 4 -1645 10 -1703 48 -465 225 -704 585 -794 141 -35
344 -45 505 -26 460 57 676 299 730 820 6 58 10 720 10 1703 l0 1607 520 0
521 0 -4 -1667 c-3 -1498 -5 -1681 -20 -1792 -37 -272 -97 -496 -177 -664 -84
-178 -235 -368 -387 -489 -339 -269 -849 -403 -1468 -385 -313 10 -535 45
-770 122 -256 84 -449 199 -620 370 -259 259 -384 548 -452 1046 -15 111 -17
294 -20 1792 l-4 1667 521 0 520 0 0 -1607z"/>
</g>
</svg>
